<svg width="12" height="12" viewBox="0 0 17 17" fill="none" xmlns="http://www.w3.org/2000/svg">
    <path d="M1.6001 3.53281e-06C1.3013 -0.000644259 1.00908 0.0878081 0.760799 0.254057C0.512514 0.420305 0.319431 0.656801 0.20622 0.933328C0.0930094 1.20986 0.0648133 1.51386 0.125232 1.80649C0.185651 2.09912 0.331941 2.3671 0.545413 2.57618L6.18604 8.25977L0.451663 13.9512C0.309984 14.0898 0.197139 14.2551 0.119628 14.4376C0.0421177 14.62 0.00147531 14.816 3.94247e-05 15.0142C-0.00139646 15.2125 0.0364033 15.409 0.111263 15.5926C0.186122 15.7761 0.29656 15.9431 0.436216 16.0838C0.575871 16.2244 0.741984 16.3361 0.924983 16.4123C1.10798 16.4885 1.30425 16.5278 1.50248 16.5278C1.70072 16.5278 1.89699 16.4886 2.08001 16.4124C2.26303 16.3363 2.42916 16.2246 2.56885 16.084L8.30323 10.3926L13.9439 16.0762C14.0825 16.2179 14.2478 16.3307 14.4303 16.4082C14.6127 16.4857 14.8087 16.5264 15.0069 16.5278C15.2052 16.5292 15.4017 16.4914 15.5853 16.4166C15.7688 16.3417 15.9357 16.2313 16.0764 16.0916C16.2171 15.952 16.3288 15.7859 16.405 15.6029C16.4812 15.4199 16.5204 15.2236 16.5205 15.0254C16.5205 14.8271 16.4813 14.6308 16.4051 14.4478C16.3289 14.2648 16.2173 14.0987 16.0767 13.959L10.436 8.27539L16.0689 2.68555C16.2105 2.5469 16.3234 2.38159 16.4009 2.19914C16.4784 2.01669 16.519 1.8207 16.5205 1.62248C16.5219 1.42425 16.4841 1.2277 16.4093 1.04414C16.3344 0.860587 16.224 0.693659 16.0843 0.552972C15.9446 0.412286 15.7785 0.300623 15.5955 0.224416C15.4125 0.148209 15.2163 0.108964 15.018 0.108942C14.8198 0.10892 14.6235 0.148122 14.4405 0.224289C14.2575 0.300455 14.0913 0.412082 13.9517 0.552738L8.31885 6.14258L2.67823 0.458988C2.53842 0.314173 2.37095 0.198922 2.18575 0.120077C2.00054 0.0412317 1.80139 0.000398657 1.6001 3.53281e-06Z" fill="#363f4c"/>
</svg>
