<svg width="488" height="488" viewBox="0 0 488 488" fill="none" xmlns="http://www.w3.org/2000/svg">
<g clip-path="url(#clip0_6_2)">
<path d="M354.213 182.861L333.566 181.018L312.039 421.044L332.686 422.886L354.213 182.861Z" fill="black"/>
<path d="M253.922 181.94H233.194V421.966H253.922V181.94Z" fill="black"/>
<path d="M175.078 421.044L153.55 181.018L132.902 182.861L154.431 422.886L175.078 421.044Z" fill="black"/>
<path d="M440.446 65.222H327.617C325.365 28.948 288.518 0 243.558 0C198.588 0 161.741 28.948 159.489 65.222H46.669C40.941 65.222 36.305 69.857 36.305 75.586V127.133C36.305 132.861 40.941 137.497 46.669 137.497H65.206L96.141 477.692C96.627 483.026 101.101 487.115 106.465 487.115H380.64C386.005 487.115 390.479 483.026 390.964 477.692L421.9 137.497H440.447C446.176 137.497 450.811 132.861 450.811 127.133V75.586C450.811 69.856 446.176 65.222 440.446 65.222ZM371.177 466.387H115.929L86.021 137.518H401.086L371.177 466.387ZM243.558 20.728C276.978 20.728 304.437 40.384 306.826 65.221H180.28C182.669 40.384 210.138 20.728 243.558 20.728ZM430.082 116.769H57.033V85.95H430.082V116.769Z" fill="black"/>
</g>
<defs>
<clipPath id="clip0_6_2">
<rect width="487.116" height="487.116" fill="white"/>
</clipPath>
</defs>
</svg>
